<svg xmlns="http://www.w3.org/2000/svg" viewBox="0 0 660 648"><defs><style>.cls-1{fill:#2680eb;}.cls-2{fill:#fff;}</style></defs><title>avatar-hombre</title><g id="Capa_2" data-name="Capa 2"><path class="cls-1" d="M573.15,484.43c-4-20.54-163.58-106.69-163.58-109.54s-8.55-5.75-9.69-9.7c-9.92-34.41,7.59-82.8,7.59-82.8s-.2.44,4.36-.12S428,237,427.4,227.9c-.48-7.76-7.14-8.51-9.13-8.56.71-7.78,4.11-45.64,4.11-50.15V159.14s-2.91-6.88-3.17-10-1.07-26.45-4.24-34.38-19.7-14-19.7-14h0a62.47,62.47,0,0,0-16-12.67l0,0c-7.05-6.74-19.27-7-23.69-8.71s-1.78-5.18-1.78-5.18-2.78.8-6.15,1.39-3.37-4.16-3.37-4.16A219.84,219.84,0,0,0,305.29,81.4h0c-2.06.73-19.16,6.4-19.16,6.4a49.83,49.83,0,0,0-7.93,0c-2.39.4-8.53,4.16-10.91,10.31s-9.92,5.56-14.29,12.7c-2.5,4.09-.31,10.32,2,14.9-.53,7.53,1.64,18-1.08,20.74-3.58,3.66-7.58,7.93-7.58,7.93l.7,5s-1.58,6.08,0,7.66,2.38,5,.27,14.55c-1.67,7.51,5,32.62,8,42.89a16.89,16.89,0,0,0-7.35,1c-9.42,3,8.64,35.73,11.55,56.35,2.19,15.47,13.61,7.15,13.61,7.15s13.75,58.18-3.56,79c-.55.66-3.42,0-3.42,0s-131.8,83.87-164.32,103.55-27.38,101-27.38,101H578S577.14,505,573.15,484.43ZM258.23,225.72l.34-.66c.22,1,.36,1.52.36,1.52A3.18,3.18,0,0,0,258.23,225.72Z"/><polygon class="cls-2" points="309.4 574.51 271.44 369.98 271.57 365.11 341.56 403.77 401.39 367.5 410.33 372.83 376.21 572.58 309.4 574.51"/><polygon class="cls-1" points="341.56 403.77 319.08 440.8 329.66 452.97 317.76 572.58 371.71 572.58 354.52 452.97 364.57 441.84 341.56 403.77"/></g></svg>