<svg xmlns="http://www.w3.org/2000/svg" viewBox="0 0 660 648"><defs><style>.cls-1{fill:#2680eb;}.cls-2{fill:#fff;}</style></defs><title>avatar-mujer</title><g id="Capa_2" data-name="Capa 2"><path class="cls-1" d="M523.33,492.5c-7.31-19.44-136.79-83.28-137.65-87.27-1.23-5.62-2.18-11-2.94-16.19,54.66-7,86.91-18.13,86.91-18.13S497.2,44.16,328.32,70.78l-4.67-1.26s-82-25.31-91.53,139.78c-1.63,28.43,0,60,0,79.7,0,53.13-40.47,81.91-40.47,81.91A405.29,405.29,0,0,0,292.75,393c-6.75,23.4-86.61,67.75-118,86.72C142.51,499.29,147.6,580,147.6,580H528.14S536.4,527.29,523.33,492.5Z"/><polyline class="cls-2" points="253.51 423.31 287.48 390.84 328.83 450.77 382.81 389.68 405.89 417.09 374.77 460.26 365.28 455.99 320.69 580 290.64 460.1 285.68 462.23 258.5 418.54"/></g></svg>