<svg xmlns="http://www.w3.org/2000/svg" viewBox="0 0 983.69 648"><defs><style>.cls-1{fill:#fff;}</style></defs><title>factory-icon</title><g id="Capa_2" data-name="Capa 2"><path class="cls-1" d="M543.32,129.12a6.06,6.06,0,0,0-5.94-5H474a6,6,0,0,0-6,6.05V147h78.64Z"/><polygon class="cls-1" points="581.82 340.07 548.3 156.44 467.93 156.44 467.93 340.07 467.93 340.07 581.82 340.07"/><polygon class="cls-1" points="546.57 147.01 467.93 147.01 467.93 156.44 548.3 156.44 546.57 147.01"/><path class="cls-1" d="M588.54,345.07a6,6,0,0,0-5.95-5H466.1L251.55,176.73a6,6,0,0,0-9.69,4.8V330.28L40.18,176.73a6,6,0,0,0-9.69,4.8v382a6,6,0,0,0,6,6H518.24v-162h81.17ZM175,389.51a5.19,5.19,0,0,1-5.21,5.22H91.44a5.19,5.19,0,0,1-5.22-5.22v-23a5.21,5.21,0,0,1,5.22-5.23h78.31a5.22,5.22,0,0,1,5.21,5.23Zm210.63,0a5.25,5.25,0,0,1-1.53,3.7,5.18,5.18,0,0,1-3.7,1.52h-78.3a5.24,5.24,0,0,1-5.25-5.22v-23a5.24,5.24,0,0,1,1.55-3.7,5.3,5.3,0,0,1,3.7-1.53h78.3a5.24,5.24,0,0,1,5.23,5.23Z"/><polygon class="cls-1" points="234.82 289.86 29.54 133.73 29.63 156.12 234.91 312.26 234.82 289.86"/><polygon class="cls-1" points="450.31 318.81 450.22 296.4 244.94 140.26 245.03 162.67 450.31 318.81"/><path class="cls-1" d="M354.24,80.55c4.61,0,9.08-.24,13.36-.65,10.41,7.33,26,12,43.44,12,15.73,0,29.95-3.79,40.24-9.93,10.27,6.14,24.49,9.93,40.22,9.93,31.37,0,56.8-15.11,56.8-33.73s-25.43-33.74-56.8-33.74c-15.73,0-29.95,3.79-40.22,9.93C441,28.24,426.77,24.45,411,24.45c-17.43,0-33,4.67-43.44,12-4.28-.41-8.75-.65-13.36-.65-31.36,0-56.81,10-56.81,22.37S322.88,80.55,354.24,80.55Z"/><path class="cls-1" d="M960.8,578.6H950v-58l10.84,4.48Zm-10-.78H960V525.65l-9.27-3.83Z"/><path class="cls-1" d="M948.36,574.21v-57L902.5,502,861.85,455h-47.6V412.57h-292v164.8H510.89v13.52h58.19a43.25,43.25,0,0,0,86,0H829.36a43.25,43.25,0,0,0,86,0h49.34V574.21ZM612.07,606.33a20.16,20.16,0,1,1,20.16-20.16A20.16,20.16,0,0,1,612.07,606.33ZM820.49,504.56V465h38.36l30.62,39.53Zm51.87,101.77a20.16,20.16,0,1,1,20.16-20.16A20.15,20.15,0,0,1,872.36,606.33Z"/></g></svg>