<svg xmlns="http://www.w3.org/2000/svg" viewBox="0 0 439.69 648"><defs><style>.cls-1{fill:#2680eb;}</style></defs><title>hotel-icon color</title><g id="Capa_2" data-name="Capa 2"><rect class="cls-1" x="74.73" y="602.47" width="317.13" height="18.53"/><rect class="cls-1" x="118.46" y="102.47" width="107.91" height="18.52"/><rect class="cls-1" x="136.94" y="83.95" width="70.96" height="18.52"/><path class="cls-1" d="M79.64,174.4V606.76H265.19V174.4Zm45.48,413.36h-30v-30h30Zm0-46.11h-30v-30h30Zm0-70.06h-30v-30h30Zm0-46.11h-30v-30h30Zm0-46.11h-30v-30h30Zm0-70.05h-30v-30h30Zm0-46.12h-30v-30h30Zm0-46.11h-30v-30h30ZM174.58,588h-30V558h30Zm0-46.11h-30v-30h30Zm0-70.05h-30v-30h30Zm0-46.12h-30v-30h30Zm0-46.1h-30v-30h30Zm0-70.06h-30v-30h30Zm0-46.11h-30v-30h30Zm0-46.11h-30v-30h30Zm70.48,371h-30v-30h30Zm0-46.11h-30v-30h30Zm0-70.39h-30v-30h30Zm0-46.12h-30v-30h30Zm0-46.1h-30v-30h30Zm0-70.06h-30v-30h30Zm0-46.11h-30v-30h30Zm0-46.11h-30v-30h30Z"/><path class="cls-1" d="M103.25,117.51v58.73H241.58V117.51Zm41.66,52.25H123.44V150.52h21.47Zm0-26.3H123.44V124.22h21.47Zm38.24,26.44H161.68V150.66h21.47Zm0-26.3H161.68V124.36h21.47Zm38.24,26.3H199.92V150.66h21.47Zm0-26.3H199.92V124.36h21.47Z"/><path class="cls-1" d="M261.13,294.32V617.21H391.86V294.32Zm23.74,17.32H314.8v26.83H284.87Zm0,36.67H314.8v26.83H284.87Zm0,35H314.8v26.82H284.87Zm0,55.51H314.8v26.83H284.87Zm0,35H314.8V500.6H284.87Zm0,36.67H314.8v26.82H284.87Zm65.91,103.64H302.2V552.36h48.58Zm17.33-76.62H338.18V510.64h29.93Zm0-36.68H338.18V474h29.93Zm0-35H338.18V439h29.93Zm0-55.52H338.18V383.48h29.93Zm0-35H338.18V348.5h29.93Zm0-36.67H338.18V311.84h29.93Z"/><polygon class="cls-1" points="183.82 108.39 161.02 108.39 170.81 30.22 174.02 30.22 183.82 108.39"/></g></svg>