<svg xmlns="http://www.w3.org/2000/svg" viewBox="0 0 660 648"><defs><style>.cls-1{fill:#2680eb;}.cls-2{fill:#fff;}</style></defs><title>instagram-icon</title><g id="Capa_2" data-name="Capa 2"><path id="_Trazado_" data-name="&lt;Trazado&gt;" class="cls-1" d="M598,340c0,148.16-120.1,268.26-268.25,268.26S61.5,488.17,61.5,340,181.6,71.77,329.75,71.77,598,191.86,598,340Z"/><path class="cls-2" d="M427.2,181.14H232.27a61.46,61.46,0,0,0-61.39,61.4v195a61.46,61.46,0,0,0,61.39,61.4H427.2a61.48,61.48,0,0,0,61.43-61.4v-195A61.48,61.48,0,0,0,427.2,181.14Zm17.63,36.64,7-.05v53.86l-53.66.17L398,217.91ZM284.41,307.41a55.76,55.76,0,0,1,90.69,0,59.92,59.92,0,0,1,3.36,5.34A55.37,55.37,0,0,1,385.69,340a55.94,55.94,0,0,1-111.87,0,57.38,57.38,0,0,1,10.59-32.6ZM457.67,437.49A30.5,30.5,0,0,1,427.2,468H232.27a30.48,30.48,0,0,1-30.44-30.46V307.41h47.43a87.87,87.87,0,0,0-6.39,32.6,86.89,86.89,0,1,0,173.77,0,88.27,88.27,0,0,0-6.42-32.6h47.45V437.49Z"/></g></svg>