<svg xmlns="http://www.w3.org/2000/svg" viewBox="0 0 820.56 929.38"><defs><style>.cls-1{fill:#fff;}</style></defs><title>interrogante-icon</title><g id="Capa_2" data-name="Capa 2"><circle class="cls-1" cx="407.35" cy="491.98" r="91.75"/><path class="cls-1" d="M238.77,890.38c0-130.68,75.48-236.62,168.58-236.62S575.94,759.7,575.94,890.38Z"/><circle class="cls-1" cx="629.17" cy="465.23" r="70.97"/><path class="cls-1" d="M498.77,773.38c0-101.08,58.38-183,130.4-183s130.39,81.94,130.39,183Z"/><circle class="cls-1" cx="185.17" cy="472.23" r="70.97"/><path class="cls-1" d="M54.77,780.38c0-101.08,58.38-183,130.4-183s130.39,81.94,130.39,183Z"/><path class="cls-1" d="M383.82,228.38l-.73-9.41c-2.17-19.56,4.35-40.92,22.45-62.65,16.3-19.19,25.35-33.31,25.35-49.61,0-18.47-11.59-30.78-34.4-31.14-13,0-27.52,4.35-36.57,11.23L351.23,64C363.17,55.29,383.82,49.5,403,49.5c41.64,0,60.47,25.71,60.47,53.23,0,24.62-13.76,42.37-31.14,63C416.41,184.57,410.61,200.5,411.7,219l.36,9.41Zm-8,50.7c0-13.4,9-22.81,21.73-22.81s21.36,9.41,21.36,22.81c0,12.67-8.33,22.45-21.73,22.45C384.54,301.53,375.85,291.75,375.85,279.08Z"/></g></svg>