<svg xmlns="http://www.w3.org/2000/svg" viewBox="0 0 734.13 940.79"><defs><style>.cls-1{fill:#2680eb;}</style></defs><title>requisitos-icon</title><g id="Capa_2" data-name="Capa 2"><path class="cls-1" d="M406.91,28.05H319.52c-54.3,0-98.32,38.39-98.32,85.74V180h284V113.79C505.23,66.44,461.21,28.05,406.91,28.05Zm-43.69,72.47C349,100.52,337.4,90.44,337.4,78S349,55.49,363.22,55.49,389,65.57,389,78,377.48,100.52,363.22,100.52Z"/><polygon class="cls-1" points="169.52 693.18 202.06 726.39 233.57 678.89 164.88 678.89 164.88 751.26 237.25 751.26 237.25 689.11 202.06 739.13 169.52 693.18"/><polygon class="cls-1" points="198.18 394.83 165.65 348.88 198.18 382.09 229.69 334.59 161 334.59 161 406.96 233.37 406.96 233.37 344.81 198.18 394.83"/><polygon class="cls-1" points="169.52 520.06 202.06 553.27 233.57 505.77 164.88 505.77 164.88 578.14 237.25 578.14 237.25 515.99 202.06 566.01 169.52 520.06"/><path class="cls-1" d="M571.08,136.5H515.56v51h-303v-51H157.08c-49.68,0-90,35.12-90,78.43V811.62c0,43.31,40.27,78.43,90,78.43h414c49.67,0,89.94-35.12,89.94-78.43V214.93C661,171.62,620.75,136.5,571.08,136.5ZM326.21,371h168.7v24.1H326.21Zm0,171.28h168.7v24.1H326.21Zm-168.44-211h74.06l34.91-52.63,13.57-.64L236.6,340.22v70H157.77Zm82.71,423.13H161.65V675.66h74.06L270.62,623l13.56-.64-43.7,62.13Zm0-243.09v70H161.65V502.54h74.06l34.91-52.63,13.56-.64ZM494.91,736H326.21v-24.1h168.7Zm74-36.15H326.21v-24.1H568.93Zm0-169.56H326.21v-24.1H568.93Zm0-171.28H326.21v-24.1H568.93Z"/></g></svg>