<svg xmlns="http://www.w3.org/2000/svg" viewBox="0 0 660 648"><defs><style>.cls-1{fill:#2680eb;}</style></defs><title>salvavidas-icon</title><g id="Capa_2" data-name="Capa 2"><path class="cls-1" d="M605,329.05c0-.43,0-.86,0-1.28,0-2.27.09-4.48.09-6.79h-.17c-1.71-87.37-20.08-148.28-57.52-190.83-41.44-47.1-108-72.13-202.91-76.46a14,14,0,0,0-27.14,0C222.67,58.14,156.37,83.15,115,130.15c-35.46,40.31-53.8,97.11-57.09,177.22a14,14,0,0,0-.6,27v.17h.17C59.2,421.93,77.57,482.83,115,525.39c41.34,47,107.59,72,202.14,76.44a14,14,0,0,0,27.14,0c95-4.33,161.57-29.37,203-76.48,34.5-39.2,52.84-93.95,56.84-170.64a14,14,0,0,0,.79-25.69Zm-8.35-1.28v.1a15.44,15.44,0,0,0-3.1.85C594,202.27,502.75,90.1,374.08,68.59a265,265,0,0,0-31.63-3.32A14.41,14.41,0,0,0,344.1,62C521,69.92,594.79,147.83,596.6,327.77ZM331.06,578.1a251.29,251.29,0,0,1-84.28-14.55l29.6-83.66a162.49,162.49,0,0,0,111-.63l31.13,83.21A250.7,250.7,0,0,1,331.06,578.1Zm-.6-500.66a250.37,250.37,0,0,1,84,14.49l-29.59,83.65a162.21,162.21,0,0,0-110.76.74L243,93.1A250.7,250.7,0,0,1,330.46,77.44ZM477.78,352.35a149.24,149.24,0,1,1-122.46-171.6C436.4,194.29,491.33,271.28,477.78,352.35Zm-383-108.12,83.68,29.62a163,163,0,0,0-7,27.29,160.58,160.58,0,0,0,7.94,83.07L96.23,415.3A248.73,248.73,0,0,1,83.89,286.51,253.48,253.48,0,0,1,94.77,244.23ZM566.68,411.51,483,381.9a164.8,164.8,0,0,0,7.1-27.5A160.6,160.6,0,0,0,482,271.24l83.07-31.09A248.79,248.79,0,0,1,577.62,369,255.52,255.52,0,0,1,566.68,411.51ZM317.59,62a14,14,0,0,0,1.58,3.2C195.39,70.43,92.21,161,71.59,284.45c-1.37,8.16-2.32,16.31-2.92,24.44a13,13,0,0,0-2.41-1.14C73.28,142.24,147.84,69.8,317.59,62ZM65.82,334.33a12.47,12.47,0,0,0,2.2-.92A262.83,262.83,0,0,0,287.43,586.94a266.21,266.21,0,0,0,31.7,3.35,13.83,13.83,0,0,0-1.64,3.23C143.27,585.51,69.35,509.38,65.82,334.33ZM344,593.55a13.47,13.47,0,0,0-1.57-3.21C466.16,585.1,569.3,494.52,589.94,371.1c.95-5.7,1.64-11.39,2.21-17.06a14.24,14.24,0,0,0,3.61,1.36C586.79,515.81,511.67,586.07,344,593.55Z"/></g></svg>