<svg id="Capa_1" data-name="Capa 1" xmlns="http://www.w3.org/2000/svg" viewBox="0 0 1024 1024"><defs><style>.cls-1{fill:#fff;}</style></defs><title>tecnico-icon</title><polygon class="cls-1" points="695.52 363.04 695.52 365.13 697.29 363.61 695.52 363.04"/><circle class="cls-1" cx="616.15" cy="219.39" r="67.08"/><path class="cls-1" d="M537.16,792.51a33,33,0,0,0,66,0V551.37h26.4V792.21a33,33,0,0,0,66,0V395.5L537.16,530.8Z"/><path class="cls-1" d="M787,281.29l-2.56,7.9,31.38-26.81A27.52,27.52,0,0,0,787,281.29Z"/><path class="cls-1" d="M537.16,450.33v50.1l158.36-135.3V363l1.77.57,53.13-45.39-54.9-17.8v-.88H537.16v8.88L419.43,532.61a33,33,0,0,0,24,47.92l46-39.34Z"/><path class="cls-1" d="M806.51,399l7.64-23.53c.38-.87.73-1.77,1-2.7l24.16-74.53a27.46,27.46,0,0,0-2.91-23.15L723.07,372Z"/><polygon class="cls-1" points="697.91 363.81 697.29 363.61 695.52 365.13 695.52 365.85 697.91 363.81"/><polygon class="cls-1" points="697.91 363.81 751.03 318.42 750.42 318.22 697.29 363.61 697.91 363.81"/><polygon class="cls-1" points="695.52 365.85 695.52 365.13 537.16 500.43 537.16 501.15 695.52 365.85"/><path class="cls-1" d="M722.45,371.77l.62.2,113.36-96.86-.31-.46Z"/><path class="cls-1" d="M816.53,262.46l-.75-.08L784.4,289.19l-.32,1Z"/><polygon class="cls-1" points="537.16 530.08 537.16 530.8 695.52 395.5 695.52 394.78 537.16 530.08"/><path class="cls-1" d="M488.76,542.5l.69-1.31-46,39.34.72.11Z"/><polygon class="cls-1" points="695.52 366.57 698.52 364.01 697.91 363.81 695.52 365.85 695.52 366.57"/><polygon class="cls-1" points="695.52 365.85 537.16 501.15 537.16 501.87 695.52 366.57 695.52 365.85"/><path class="cls-1" d="M488.07,543.82l.69-1.32-44.63,38.14.74.09Z"/><path class="cls-1" d="M783.75,291.19l33.51-28.63-.73-.1-32.45,27.73Z"/><polygon class="cls-1" points="289.63 747.25 275.75 731.03 909.74 190.29 923.62 206.51 289.63 747.25"/><path class="cls-1" d="M289.58,748,275,731l.41-.35L909.8,189.54l14.57,17-.4.35Zm-13.07-16.91,13.18,15.41,633.18-540L909.68,191Z"/><path class="cls-1" d="M205.85,913c-.44,0-.89,0-1.34,0a21.12,21.12,0,0,1-15.25-8.05L104.67,796.76a21.06,21.06,0,0,1,4.88-30.49L227,687.61a21.09,21.09,0,0,1,28.46,4.71l67.18,87.92A21.1,21.1,0,0,1,320.74,808L220.67,906.92A21.13,21.13,0,0,1,205.85,913Zm32.89-218a10,10,0,0,0-5.59,1.7L115.66,775.41A10.07,10.07,0,0,0,113.33,790l84.59,108.16a10.08,10.08,0,0,0,15,1L313,800.19a10.09,10.09,0,0,0,.93-13.28L246.76,699A10.09,10.09,0,0,0,238.74,695.05Z"/></svg>