<svg xmlns="http://www.w3.org/2000/svg" viewBox="0 0 660 648"><defs><style>.cls-1{fill:#2680eb;}.cls-2{fill:#fff;}</style></defs><title>twitter-icon</title><g id="Capa_2" data-name="Capa 2"><path id="_Trazado_" data-name="&lt;Trazado&gt;" class="cls-1" d="M605.73,323.73C605.73,476.31,482.05,600,329.47,600S53.2,476.31,53.2,323.73,176.9,47.47,329.47,47.47,605.73,171.16,605.73,323.73Z"/><path id="_Trazado_2" data-name="&lt;Trazado&gt;" class="cls-2" d="M493.1,239.45a135.24,135.24,0,0,1-38.56,10.39,66.48,66.48,0,0,0,29.54-36.57,135.32,135.32,0,0,1-42.66,16,67.5,67.5,0,0,0-49-20.87c-37.07,0-67.13,29.6-67.13,66.1A66.86,66.86,0,0,0,327,289.61a191.66,191.66,0,0,1-138.38-69.06,65,65,0,0,0-9.1,33.22,65.88,65.88,0,0,0,29.87,55A67.81,67.81,0,0,1,179,300.52v.82a65,65,0,0,0,4.59,24,67.07,67.07,0,0,0,49.28,40.87,69.29,69.29,0,0,1-17.71,2.32,67.6,67.6,0,0,1-12.63-1.2,67.09,67.09,0,0,0,62.72,45.89,136,136,0,0,1-83.39,28.31,139.12,139.12,0,0,1-16-.93,192.42,192.42,0,0,0,102.93,29.69c105,0,169.46-72.71,186.47-148.15a181.54,181.54,0,0,0,4.57-39.89c0-2.85-.05-5.72-.18-8.55A134.72,134.72,0,0,0,493.1,239.45Z"/></g></svg>