<svg xmlns="http://www.w3.org/2000/svg" viewBox="0 0 660 648"><defs><style>.cls-1{fill:#2680eb;}.cls-2{fill:#fff;}</style></defs><title>youtube-icon</title><g id="Capa_2" data-name="Capa 2"><path id="_Trazado_" data-name="&lt;Trazado&gt;" class="cls-1" d="M610,327.78C610,482.56,484.53,608,329.76,608S49.52,482.56,49.52,327.78,175,47.54,329.76,47.54,610,173,610,327.78Z"/><path class="cls-2" d="M492.4,259.36s-3.23-23.87-13.17-34.36c-12.63-13.77-26.78-13.86-33.24-14.66-46.49-3.48-116.15-3.48-116.15-3.48h-.15s-69.7,0-116.14,3.5c-6.49.78-20.62.87-33.27,14.65-9.93,10.5-13.17,34.37-13.17,34.37a543.25,543.25,0,0,0-3.33,56v26.25a544,544,0,0,0,3.33,56s3.24,23.85,13.17,34.35c12.65,13.79,29.26,13.35,36.62,14.78,26.56,2.65,112.86,3.48,112.86,3.48s69.74-.12,116.23-3.6c6.46-.81,20.61-.87,33.24-14.67,9.94-10.5,13.17-34.35,13.17-34.35a542,542,0,0,0,3.34-56V315.39A542.29,542.29,0,0,0,492.4,259.36ZM385.15,325,295.5,373.48l0-74.58V276.23l40.44,22Z"/></g></svg>